<svg xmlns="http://www.w3.org/2000/svg" viewBox="0 0 111.6 10.9"><defs><style>.cls-1{fill:#333333;}</style></defs><g id="a" data-name="a"><g id="b" data-name="b"><path class="cls-1" d="M1.6,7.2H.6c-.2,0-.2-.2-.2-.6s0-.5.2-.5H3.7c.5,0,.7.6.7.8l-.2.4a6.7,6.7,0,0,1-1.7,2A5.8,5.8,0,0,1,.7,10.5c-.3,0-.7-.5-.7-.8s.1-.2.2-.3A7.6,7.6,0,0,0,2.1,8.2l.7-.8a.2.2,0,0,0-.2-.2ZM3.2,5.4H2.5c-.4,0-.6,0-.6-.4V1.7c0-.4.2-.5.5-.5H3.9A.5.5,0,0,0,4.4,1L4.7.3A.2.2,0,0,1,4.9.1C5,.1,6.2.3,6.2.5V.7c-.1,0-.2,0-.2.1V1a.1.1,0,0,0-.1.1l.2.2H8.3c.4,0,.6.1.6.5V5.2c0,.4-.3.4-.7.4h-2v.2h0A9.4,9.4,0,0,0,7,7.1h.5l1.2-1,.2-.2a3.3,3.3,0,0,1,1.1.9c0,.1-.1.1-.2.1H9.4l-1.1.9H8.2v.2l2.1,1.3.3.2c0,.2-.5.9-.8.9l-1-.5A8.8,8.8,0,0,1,6.2,7.7a.1.1,0,0,1-.1-.1c-.1,0-.1.1-.1.2V9.5c0,1.2-1,1.4-2,1.4s-.8,0-.8-1,.1-.2.3-.2h.6c.6,0,.6-.2.6-.8V5.7c0-.2-.1-.3-.4-.3ZM7.3,2.9a.3.3,0,0,0,.3-.3h0a.3.3,0,0,0-.3-.3H3.4a.3.3,0,0,0-.3.3h0a.3.3,0,0,0,.3.3Zm-3.9.9c-.2,0-.3.1-.3.2v.2c0,.1.1.2.3.2H7.3c.2,0,.3-.1.3-.2V4c0-.1-.1-.2-.3-.2Z"/><path class="cls-1" d="M14.2,3.9v.2a16.9,16.9,0,0,1-.5,2.4c-.1.2-.1.3-.3.3s-.8-.2-.8-.4h.1A15.5,15.5,0,0,0,13.1,4V3.8c0-.2,0-.3.1-.3H14s.3,0,.3.2A.1.1,0,0,1,14.2,3.9Zm1.6.2a9.5,9.5,0,0,1-2,6.5c-.2.2-.2.3-.4.3s-.8-.4-.8-.6a.4.4,0,0,1,.1-.3,7.1,7.1,0,0,0,1.6-2.8,10.6,10.6,0,0,0,.4-3.1V.5h0c0-.2,0-.2.2-.2h1s.2,0,.2.1V.6a1.2,1.2,0,0,0-.2.7Zm1,2.4c-.1,0-.2-.2-.2-.4a11.7,11.7,0,0,0-.6-2V3.8c0-.2.6-.3.7-.3s.3.2.5.7a12.9,12.9,0,0,1,.4,1.9C17.6,6.3,17,6.5,16.8,6.5ZM18,1.9a2.8,2.8,0,0,0-.1-.9h1.5v.2c-.2.1-.2.4-.2.9V9.8c0,.4-.1.4-.6.4s-.5-.1-.5-.4V1.9Zm2.4,4.6c-.2,0-.3-.3-.3-.4a15.9,15.9,0,0,0-.7-2V3.9c0-.3.6-.4.7-.4s.3.2.6,1A8.8,8.8,0,0,1,21.2,6C21.2,6.3,20.5,6.5,20.4,6.5Zm1.1-4.9V.5h0a.2.2,0,0,1,.2-.2h.9c.1,0,.3,0,.3.1s0,.2-.1.2-.1.3-.1.7v9.3c0,.3-.1.3-.6.3s-.6,0-.6-.3v-9Z"/><path class="cls-1" d="M26.7,7.4H25.5c-.2,0-.2-.2-.2-.5s0-.4.2-.4h5.4c.2,0,.2.1.2.4s0,.5-.2.5H26.7Zm-.6-4.9c-.2,0-.2-.1-.2-.2L25.3.8h0c0-.2.6-.4.7-.4s.2.2.5.8.4.9.4,1S26.2,2.5,26.1,2.5ZM30.8,5v.7c0,.3-.2.4-.5.4H26.1c-.3,0-.5-.1-.5-.4V3.1c0-.4.2-.5.5-.5h4.1c.4,0,.6.1.6.5V5Zm-1.6,5.3h-2c-.2,0-.2.1-.2.2v.2c0,.2-.2.2-.6.2s-.6,0-.6-.2V8.3c0-.3.3-.4.7-.4h3.4c.5,0,.7.1.7.4s-.1.4-.1.6V10a3.5,3.5,0,0,0,.1.6c0,.2-.2.2-.6.2s-.6,0-.6-.3S29.4,10.3,29.2,10.3ZM26.9,3.4c-.2.1-.2.1-.2.3h0c0,.1,0,.2.2.2h.6a.2.2,0,0,0,.2-.2h0c0-.2-.1-.2-.2-.3ZM26.7,5c0,.2.1.3.2.3h.5a.3.3,0,0,0,.3-.3h0a.3.3,0,0,0-.3-.3h-.5c-.1,0-.2.1-.2.3Zm2.5,4.5a.3.3,0,0,0,.3-.3V9a.3.3,0,0,0-.3-.3h-2c-.1,0-.2.2-.2.3v.2c0,.1.1.3.2.3Zm-1-7.2h-.3c-.2,0-.2-.1-.2-.3A6.5,6.5,0,0,0,27.3.7V.5c0-.2.6-.3.7-.3s.3.1.5.7A5.2,5.2,0,0,1,28.6,2C28.6,2.1,28.5,2.2,28.2,2.3Zm1.5,1.4c0-.2-.1-.2-.2-.3h-.6c-.1,0-.2.1-.2.3h0a.2.2,0,0,0,.2.2h.6a.2.2,0,0,0,.2-.2Zm-.3,1.6a.3.3,0,0,0,.3-.3h0a.3.3,0,0,0-.3-.3H29a.3.3,0,0,0-.3.3h0a.3.3,0,0,0,.3.3ZM31.1.8H31a10.9,10.9,0,0,1-.8,1.5H30c-.1,0-.8-.2-.8-.4s.1-.2.1-.3A11.9,11.9,0,0,0,30.2.3c0-.1,0-.2.1-.2l.5.2H31l.3.3C31.3.8,31.2.8,31.1.8Zm3.1,3.4a.3.3,0,0,0-.3.3h0a14.5,14.5,0,0,0,2,5.5v.2c0,.3-.8.7-1,.7a.3.3,0,0,1-.1-.2,3.5,3.5,0,0,1-.5-.8,13.9,13.9,0,0,1-1-3.3h-.2a11.2,11.2,0,0,1-1.3,3.9c-.1.2-.2.4-.4.4s-.8-.5-.8-.7V10a13.2,13.2,0,0,0,1.8-5.5.3.3,0,0,0-.3-.3h-1c-.3,0-.3-.1-.3-.6s0-.5.3-.5h1c.3,0,.4-.1.4-.3V1.7A4.9,4.9,0,0,0,32.6.5V.3h1.3c.1.1.2.1.2.2V.6c-.2,0-.2.2-.2.3V2.8a.3.3,0,0,0,.3.3h1.6c.2,0,.2.1.2.6s0,.5-.2.5H34.2Zm1.1-1.5h-.6c-.1-.4-.4-1.1-.5-1.5s-.1-.1-.1-.2.7-.3.7-.3.3.2.6.9a4.1,4.1,0,0,1,.3.8C35.7,2.6,35.5,2.6,35.3,2.7Z"/><path class="cls-1" d="M39.9,10.5c-.2,0-.2.1-.3.3H39c-.5,0-.6,0-.6-.3V1.3c0-.5.2-.6.7-.6h8.7c.3,0,.3.1.3.6s0,.6-.3.6H39.9c-.2,0-.3.1-.3.4V9.1a.3.3,0,0,0,.3.3H48c.3,0,.3.1.3.6s0,.5-.3.5H39.9ZM44.6,5c0,.1.1.2.3.2h2.9c.3,0,.3.1.3.5s0,.5-.3.5H45.3A7.2,7.2,0,0,0,47.7,8c.2.1.4.2.4.3s-.3.9-.6.9a8.4,8.4,0,0,1-3.2-2.3h-.4a6.2,6.2,0,0,1-3.2,2.3c-.2,0-.6-.7-.6-.9a.2.2,0,0,1,.2-.2,5.4,5.4,0,0,0,2.5-1.6c0-.1.1-.1.1-.2H40.6c-.3,0-.3-.1-.3-.5s0-.5.3-.5h2.5c.2,0,.3-.1.4-.3V4.2a.3.3,0,0,0-.3-.3h-.6a.6.6,0,0,0-.5.2c0,.1,0,.1-.1.2s-.4.7-.6.7-.9-.3-.9-.5.1-.2.2-.2a13.9,13.9,0,0,0,1.1-2.1c0-.1,0-.3.1-.3l1,.3c.1,0,.3.1.3.2h-.1c-.1,0-.2,0-.2.1h0a.2.2,0,0,0,.2.2H47c.3,0,.3.2.3.6s0,.5-.3.5H45.1c-.3,0-.4.1-.4.3a1.7,1.7,0,0,1-.1.7Z"/><path class="cls-1" d="M53.6,2.9c0,.3.1.4.3.4h.2c.4,0,.5.1.5.5V6.9c0,.3-.1.3-.6.3h-.1a.3.3,0,0,0-.3.3v.9a.3.3,0,0,0,.3.3h.7c.2,0,.2.1.2.5s0,.6-.2.6H52.2c-.2,0-.3,0-.3.3h0c0,.3-.1.3-.6.3s-.6,0-.6-.2V1.2a.5.5,0,0,1,.6-.6h3.4c.3,0,.3.1.3.6s0,.5-.3.5h-.8a.3.3,0,0,0-.3.3ZM52.2,1.7a.3.3,0,0,0-.3.3V3a.3.3,0,0,0,.3.3h.1a.3.3,0,0,0,.3-.3V2a.3.3,0,0,0-.3-.3Zm.9,4.2c.3,0,.4-.1.4-.3v-1c0-.2-.1-.3-.4-.3h-.9a.3.3,0,0,0-.3.3v1a.3.3,0,0,0,.3.3ZM51.9,8.4a.3.3,0,0,0,.3.3h.1a.3.3,0,0,0,.3-.3V7.2a.3.3,0,0,0-.3-.3h-.1a.3.3,0,0,0-.3.3Zm3.4-4.7c-.2,0-.7-.3-.7-.6s.1-.2.1-.3A9.9,9.9,0,0,0,56,.3c0-.1,0-.2.1-.2h.8c.2.1.5.1.5.3h-.2c-.2.1-.2.1-.2.3s-.1.1-.1.2l.3.2h3.5c.3,0,.3.2.3.6s0,.5-.3.5h-4a.5.5,0,0,0-.5.3C56.1,2.8,55.5,3.7,55.3,3.7Zm.6,6.9c0,.2-.1.2-.5.2s-.5,0-.5-.2.1-.5.1-.8V7.7c0-.2-.1-.4-.1-.6s.2-.4.5-.4h1.7c.3,0,.4.1.4.4v3.4c0,.2,0,.2-.4.2s-.5,0-.5-.3a.2.2,0,0,0-.2-.2h-.3a.2.2,0,0,0-.2.2ZM56.6,8a.3.3,0,0,0-.3-.3h-.1a.3.3,0,0,0-.3.3V9a.3.3,0,0,0,.3.3h.1a.3.3,0,0,0,.3-.3ZM60,5v.6a.5.5,0,0,1-.5.5H56.4c-.4,0-.5-.2-.5-.5V3.5c0-.4.1-.5.5-.5h3.1c.3,0,.5.1.5.5V5Zm-3.1-.3c.1.2.2.4.4.4h1.3c.2-.1.3-.2.3-.4V4.3a.3.3,0,0,0-.3-.3H57.3c-.2,0-.3.1-.4.3Zm2.4,5.5-.3.3h.1c0,.2-.1.2-.5.2s-.5,0-.5-.2V7.1c0-.3.2-.3.5-.3h1.7c.3,0,.5,0,.5.3v3.5c0,.3-.1.2-.5.2s-.5.1-.5-.2h0a.3.3,0,0,0-.3-.3Zm.2-.9a.3.3,0,0,0,.3-.3V8a.3.3,0,0,0-.3-.3h-.1c-.2,0-.3.1-.4.3V9c.1.2.2.3.4.3Z"/><path class="cls-1" d="M67.4,1.3c.3,0,.3-.1.4-.3s-.1-.4-.1-.6h0a.2.2,0,0,1,.2-.2H69c.1,0,.3,0,.3.2V.6c-.2.1-.2.2-.2.4s.1.3.4.3h3.8c.3,0,.2.1.2.6s.1.5-.2.5H65.5c-.2,0-.3.1-.3.4V5.1a13,13,0,0,1-.6,4.4,4.5,4.5,0,0,1-.6,1.2l-.2.2c-.3,0-1-.3-1-.6a.1.1,0,0,1,.1-.1,10.3,10.3,0,0,0,1-5.2V1.9c0-.5.3-.6.7-.6h2.8ZM66.3,9.8l-.4.2c-.2,0-.8-.5-.8-.7s.1-.3.2-.3a16.4,16.4,0,0,0,2.6-3.3h0c0-.2-.1-.2-.2-.2H65.8c-.3,0-.3-.1-.3-.6s0-.5.3-.5h2.5c.3,0,.4-.1.4-.3a3.4,3.4,0,0,0-.1-1h0a.2.2,0,0,1,.2-.2h1.1c.1.1.3.1.3.2s-.1.1-.1.2-.2.3-.2.8a.3.3,0,0,0,.3.3h2.9c.4,0,.3.1.3.5s.1.6-.3.6H70.9c-.1,0-.2,0-.2.2h0A12.2,12.2,0,0,0,73.4,9c.1.1.2.2.2.3s-.7.7-.9.7-.4-.3-.6-.5H72a9.1,9.1,0,0,1-1.9-2.6h-.2v3.7c0,.4-.1.4-.6.4s-.7,0-.7-.4.1-1,.1-1.4V6.8h-.2A12.9,12.9,0,0,1,66.3,9.8Z"/><path class="cls-1" d="M78.3,8.8H78c-.3,0-.4.1-.4.3v.4c0,.3-.2.3-.6.3s-.6,0-.6-.3V6.9a.1.1,0,0,0-.1-.1h0c-.1.1-.2.3-.3.3s-.8-.5-.8-.8V6.2A12.6,12.6,0,0,0,77,2h0c0-.2-.1-.2-.2-.2H76c-.3,0-.3-.2-.3-.6s0-.6.3-.6h3.8c.2,0,.2.2.2.6s0,.6-.2.6H78.6c-.3,0-.4,0-.4.3a8.3,8.3,0,0,1-.4,1.5h0c0,.2.1.3.2.3h1.2a.5.5,0,0,1,.5.5V9c0,.3-.1.3-.6.3s-.5,0-.5-.3S78.5,8.8,78.3,8.8Zm-.1-1.1c.2-.1.4-.2.4-.4v-2c0-.2-.2-.3-.4-.3H78c-.3,0-.3.1-.4.3v2c.1.2.1.3.4.4ZM86,4.6c.3,0,.3.2.3.6s0,.6-.3.6h-.6a.3.3,0,0,0-.3.3v4.4c0,.3-.1.4-.6.4s-.6-.1-.6-.4V6.1c0-.3-.1-.4-.3-.4h-.8c-.3,0-.4.1-.4.4a6.5,6.5,0,0,1-1.6,4.4c-.1.1-.2.3-.4.3s-.8-.4-.8-.6l.2-.3a5.8,5.8,0,0,0,1.5-3.8c0-.3-.1-.3-.3-.3h-.6c-.3,0-.3-.2-.3-.6s0-.6.3-.6H81a.3.3,0,0,0,.3-.3V2a.3.3,0,0,0-.3-.3h-.4c-.3,0-.3-.2-.3-.6s0-.5.3-.5h5.2c.3,0,.3.1.3.5s0,.6-.3.6h-.4a.3.3,0,0,0-.3.3V4.3a.3.3,0,0,0,.3.3Zm-3.6-.3c.1.2.2.3.4.3h.8a.3.3,0,0,0,.3-.3V2a.3.3,0,0,0-.3-.3h-.8c-.2,0-.3.1-.4.3Z"/><path class="cls-1" d="M90.6,7.1H89.2c-.2,0-.2-.1-.2-.5s0-.6.2-.6h2.6c.3,0,.3-.1.3-.3V4.8h0c0-.2.1-.2.2-.2h1.2s.2,0,.2.1l-.2.2c-.1.1-.1.3-.1.8h0a.3.3,0,0,0,.3.3h2c.3,0,.5.1.5.5s-.1,2.1-.1,2.5,0,.5.4.5h.7c.5,0,.5-.1.6-.9s.1-.4.3-.4.9.1.9.5a3.3,3.3,0,0,1-.5,1.6c-.2.3-.7.3-1.1.3H96.2c-.7,0-1.4.1-1.4-.9s.2-1.8.2-2.3a.3.3,0,0,0-.3-.3H93.6c-.2,0-.3.1-.4.3a4.1,4.1,0,0,1-3,3,2.8,2.8,0,0,1-1.3.4c-.4,0-.6-.8-.6-1s.2-.2.3-.3A3.7,3.7,0,0,0,92,7.4h0c0-.2-.2-.2-.3-.2Zm4-5.9h3.3c.3,0,.7.1.7.5a4.3,4.3,0,0,0-.1.5v.3c0,.1.1.2.1.3s-.3.3-.6.3-.7,0-.7-.2V2.6a.3.3,0,0,0-.3-.3H95.5a.3.3,0,0,0-.3.3v.9c0,.4.2.4.5.4h.8c.4,0,.5,0,.5-.5s.1-.2.3-.2.9,0,.9.4a1.6,1.6,0,0,1-.5,1.1c-.2.3-.6.3-.9.3H95.3C94.5,5,94,5,94,4.2V2.6c0-.2-.1-.3-.4-.3H92.5c.3.1.5.1.5.3h-.2l-.2.2a4.3,4.3,0,0,1-3,2.4h-.4c-.4,0-.6-.6-.6-.8s.1-.2.4-.3a3.5,3.5,0,0,0,2.5-1.8h0c0-.2-.1-.2-.2-.2H90.1a.3.3,0,0,0-.3.3h0v.4c0,.3-.2.3-.6.3s-.6,0-.6-.3V1.7c0-.4.3-.5.7-.5h3.3a.3.3,0,0,0,.3-.3V.3h1.2l.4.2c0,.1,0,.1-.1.2s-.2.2-.2.4S94.3,1.2,94.6,1.2Z"/><path class="cls-1" d="M103.7,4.3l-.2-.2h-.1a8.2,8.2,0,0,1-2,1.2c-.2,0-.6-.6-.6-.9l.3-.3a10.8,10.8,0,0,0,4.5-4l.2-.2,1.2.3c.1,0,.2,0,.2.1s-.1.2-.2.2h0a11.8,11.8,0,0,0,4.2,3.5c.3.1.4.1.4.3s-.3.9-.6.9a10.5,10.5,0,0,1-2.2-1.3h-.1c-.1,0-.1,0-.1.1v.3c0,.3,0,.4-.3.4h-4.4c-.2,0-.2-.2-.2-.5ZM104.9,9h0a.2.2,0,0,0,.2.2l2.8-.2.2-.2V8.7l-.5-.7c0-.2.7-.6.9-.6l.3.2.9,1.3a6.5,6.5,0,0,1,1,1.5c0,.2-.8.5-1,.5l-.3-.3-.2-.3a.5.5,0,0,0-.4-.2h-.1l-2.9.3-3,.2c-.1,0-.1,0-.2.2h-.1c-.2,0-.2-.2-.3-.5l-.2-.8c0-.2.1-.1.6-.2h.6c.2,0,.3-.1.4-.3a15.1,15.1,0,0,0,.9-1.8h.1c0-.1-.2-.2-.3-.2h-2.4c-.3,0-.3-.3-.3-.6s0-.6.3-.6h8.6c.3,0,.3.2.3.6s0,.6-.3.6H106a.1.1,0,0,1,.1.1c0,.2-.1.2-.2.2s-.1,0-.2.2A10,10,0,0,1,104.9,9Zm1.2-7.4H106l-1.8,1.9c-.1,0-.1,0-.1.1h4.1a10.7,10.7,0,0,1-1.8-1.9Z"/></g></g></svg>